{"nombre":"1468115034936.mp4","metadata":{"streams":[{"index":0,"codec_name":"aac","codec_long_name":"AAC (Advanced Audio Coding)","profile":"LC","codec_type":"audio","codec_time_base":"1/44100","codec_tag_string":"mp4a","codec_tag":"0x6134706d","sample_fmt":"fltp","sample_rate":44100,"channels":2,"channel_layout":"stereo","bits_per_sample":0,"id":"N/A","r_frame_rate":"0/0","avg_frame_rate":"0/0","time_base":"1/44100","start_pts":0,"start_time":0,"duration_ts":205824,"duration":4.667211,"bit_rate":125587,"max_bit_rate":"N/A","bits_per_raw_sample":"N/A","nb_frames":201,"nb_read_frames":"N/A","nb_read_packets":"N/A","tags":{"language":"und","handler_name":"SoundHandler"},"disposition":{"default":1,"dub":0,"original":0,"comment":0,"lyrics":0,"karaoke":0,"forced":0,"hearing_impaired":0,"visual_impaired":0,"clean_effects":0,"attached_pic":0}},{"index":1,"codec_name":"h264","codec_long_name":"H.264 / AVC / MPEG-4 AVC / MPEG-4 part 10","profile":"Main","codec_type":"video","codec_time_base":"1/50","codec_tag_string":"avc1","codec_tag":"0x31637661","width":854,"height":480,"coded_width":864,"coded_height":480,"has_b_frames":1,"sample_aspect_ratio":"1280:1281","display_aspect_ratio":"16:9","pix_fmt":"yuv420p","level":30,"color_range":"N/A","color_space":"unknown","color_transfer":"unknown","color_primaries":"unknown","chroma_location":"left","timecode":"N/A","refs":3,"is_avc":1,"nal_length_size":4,"id":"N/A","r_frame_rate":"25/1","avg_frame_rate":"115000/4561","time_base":"1/90000","start_pts":0,"start_time":0,"duration_ts":410490,"duration":4.561,"bit_rate":1115932,"max_bit_rate":"N/A","bits_per_raw_sample":8,"nb_frames":115,"nb_read_frames":"N/A","nb_read_packets":"N/A","tags":{"language":"und","handler_name":"VideoHandler"},"disposition":{"default":1,"dub":0,"original":0,"comment":0,"lyrics":0,"karaoke":0,"forced":0,"hearing_impaired":0,"visual_impaired":0,"clean_effects":0,"attached_pic":0}}],"format":{"filename":"/Users/jose/www/video/public/videos/1468115034936.mp4","nb_streams":2,"nb_programs":0,"format_name":"mov,mp4,m4a,3gp,3g2,mj2","format_long_name":"QuickTime / MOV","start_time":0,"duration":4.668,"size":714569,"bit_rate":1224625,"probe_score":100,"tags":{"major_brand":"isom","minor_version":"512","compatible_brands":"isomiso2avc1mp41","encoder":"Lavf56.40.101"}},"chapters":[]},"screenshot":"1468115034936.mp4.png","_id":"5BrkrfGZ9N5lYsnd"}
{"nombre":"1468115205353.mp4","metadata":{"streams":[{"index":0,"codec_name":"aac","codec_long_name":"AAC (Advanced Audio Coding)","profile":"LC","codec_type":"audio","codec_time_base":"1/44100","codec_tag_string":"mp4a","codec_tag":"0x6134706d","sample_fmt":"fltp","sample_rate":44100,"channels":2,"channel_layout":"stereo","bits_per_sample":0,"id":"N/A","r_frame_rate":"0/0","avg_frame_rate":"0/0","time_base":"1/44100","start_pts":0,"start_time":0,"duration_ts":205824,"duration":4.667211,"bit_rate":125587,"max_bit_rate":"N/A","bits_per_raw_sample":"N/A","nb_frames":201,"nb_read_frames":"N/A","nb_read_packets":"N/A","tags":{"language":"und","handler_name":"SoundHandler"},"disposition":{"default":1,"dub":0,"original":0,"comment":0,"lyrics":0,"karaoke":0,"forced":0,"hearing_impaired":0,"visual_impaired":0,"clean_effects":0,"attached_pic":0}},{"index":1,"codec_name":"h264","codec_long_name":"H.264 / AVC / MPEG-4 AVC / MPEG-4 part 10","profile":"Main","codec_type":"video","codec_time_base":"1/50","codec_tag_string":"avc1","codec_tag":"0x31637661","width":854,"height":480,"coded_width":864,"coded_height":480,"has_b_frames":1,"sample_aspect_ratio":"1280:1281","display_aspect_ratio":"16:9","pix_fmt":"yuv420p","level":30,"color_range":"N/A","color_space":"unknown","color_transfer":"unknown","color_primaries":"unknown","chroma_location":"left","timecode":"N/A","refs":3,"is_avc":1,"nal_length_size":4,"id":"N/A","r_frame_rate":"25/1","avg_frame_rate":"115000/4561","time_base":"1/90000","start_pts":0,"start_time":0,"duration_ts":410490,"duration":4.561,"bit_rate":1115932,"max_bit_rate":"N/A","bits_per_raw_sample":8,"nb_frames":115,"nb_read_frames":"N/A","nb_read_packets":"N/A","tags":{"language":"und","handler_name":"VideoHandler"},"disposition":{"default":1,"dub":0,"original":0,"comment":0,"lyrics":0,"karaoke":0,"forced":0,"hearing_impaired":0,"visual_impaired":0,"clean_effects":0,"attached_pic":0}}],"format":{"filename":"/Users/jose/www/video/public/videos/1468115205353.mp4","nb_streams":2,"nb_programs":0,"format_name":"mov,mp4,m4a,3gp,3g2,mj2","format_long_name":"QuickTime / MOV","start_time":0,"duration":4.668,"size":714569,"bit_rate":1224625,"probe_score":100,"tags":{"major_brand":"isom","minor_version":"512","compatible_brands":"isomiso2avc1mp41","encoder":"Lavf56.40.101"}},"chapters":[]},"screenshot":"1468115205353.mp4.png","_id":"7hYHzpgvsgsjAV3i"}
{"nombre":"1468114403688.mp4","metadata":{"streams":[{"index":0,"codec_name":"mpeg4","codec_long_name":"MPEG-4 part 2","profile":"Simple Profile","codec_type":"video","codec_time_base":"1/25","codec_tag_string":"mp4v","codec_tag":"0x7634706d","width":640,"height":368,"coded_width":640,"coded_height":368,"has_b_frames":0,"sample_aspect_ratio":"1:1","display_aspect_ratio":"40:23","pix_fmt":"yuv420p","level":1,"color_range":"N/A","color_space":"unknown","color_transfer":"unknown","color_primaries":"unknown","chroma_location":"left","timecode":"N/A","refs":1,"quarter_sample":0,"divx_packed":0,"id":"N/A","r_frame_rate":"25/1","avg_frame_rate":"25/1","time_base":"1/12800","start_pts":0,"start_time":0,"duration_ts":81920,"duration":6.4,"bit_rate":932552,"max_bit_rate":"N/A","bits_per_raw_sample":"N/A","nb_frames":160,"nb_read_frames":"N/A","nb_read_packets":"N/A","tags":{"creation_time":"1970-01-01 00:00:00","language":"und","handler_name":"VideoHandler"},"disposition":{"default":1,"dub":0,"original":0,"comment":0,"lyrics":0,"karaoke":0,"forced":0,"hearing_impaired":0,"visual_impaired":0,"clean_effects":0,"attached_pic":0}},{"index":1,"codec_name":"aac","codec_long_name":"AAC (Advanced Audio Coding)","profile":"LC","codec_type":"audio","codec_time_base":"1/48000","codec_tag_string":"mp4a","codec_tag":"0x6134706d","sample_fmt":"fltp","sample_rate":48000,"channels":6,"channel_layout":5.1,"bits_per_sample":0,"id":"N/A","r_frame_rate":"0/0","avg_frame_rate":"0/0","time_base":"1/48000","start_pts":0,"start_time":0,"duration_ts":307200,"duration":6.4,"bit_rate":383202,"max_bit_rate":"N/A","bits_per_raw_sample":"N/A","nb_frames":300,"nb_read_frames":"N/A","nb_read_packets":"N/A","tags":{"creation_time":"1970-01-01 00:00:00","language":"und","handler_name":"SoundHandler"},"disposition":{"default":1,"dub":0,"original":0,"comment":0,"lyrics":0,"karaoke":0,"forced":0,"hearing_impaired":0,"visual_impaired":0,"clean_effects":0,"attached_pic":0}}],"format":{"filename":"/Users/jose/www/video/public/videos/1468114403688.mp4","nb_streams":2,"nb_programs":0,"format_name":"mov,mp4,m4a,3gp,3g2,mj2","format_long_name":"QuickTime / MOV","start_time":0,"duration":6.4,"size":1057551,"bit_rate":1321938,"probe_score":100,"tags":{"major_brand":"isom","minor_version":"512","compatible_brands":"isomiso2mp41","creation_time":"1970-01-01 00:00:00","encoder":"Lavf53.24.2"}},"chapters":[]},"screenshot":"1468114403688.mp4.png","_id":"FiJabjxgQlTS1egI"}
{"nombre":"1468115416726.mp4","metadata":{"streams":[{"index":0,"codec_name":"aac","codec_long_name":"AAC (Advanced Audio Coding)","profile":"LC","codec_type":"audio","codec_time_base":"1/44100","codec_tag_string":"mp4a","codec_tag":"0x6134706d","sample_fmt":"fltp","sample_rate":44100,"channels":2,"channel_layout":"stereo","bits_per_sample":0,"id":"N/A","r_frame_rate":"0/0","avg_frame_rate":"0/0","time_base":"1/44100","start_pts":0,"start_time":0,"duration_ts":205824,"duration":4.667211,"bit_rate":125587,"max_bit_rate":"N/A","bits_per_raw_sample":"N/A","nb_frames":201,"nb_read_frames":"N/A","nb_read_packets":"N/A","tags":{"language":"und","handler_name":"SoundHandler"},"disposition":{"default":1,"dub":0,"original":0,"comment":0,"lyrics":0,"karaoke":0,"forced":0,"hearing_impaired":0,"visual_impaired":0,"clean_effects":0,"attached_pic":0}},{"index":1,"codec_name":"h264","codec_long_name":"H.264 / AVC / MPEG-4 AVC / MPEG-4 part 10","profile":"Main","codec_type":"video","codec_time_base":"1/50","codec_tag_string":"avc1","codec_tag":"0x31637661","width":854,"height":480,"coded_width":864,"coded_height":480,"has_b_frames":1,"sample_aspect_ratio":"1280:1281","display_aspect_ratio":"16:9","pix_fmt":"yuv420p","level":30,"color_range":"N/A","color_space":"unknown","color_transfer":"unknown","color_primaries":"unknown","chroma_location":"left","timecode":"N/A","refs":3,"is_avc":1,"nal_length_size":4,"id":"N/A","r_frame_rate":"25/1","avg_frame_rate":"115000/4561","time_base":"1/90000","start_pts":0,"start_time":0,"duration_ts":410490,"duration":4.561,"bit_rate":1115932,"max_bit_rate":"N/A","bits_per_raw_sample":8,"nb_frames":115,"nb_read_frames":"N/A","nb_read_packets":"N/A","tags":{"language":"und","handler_name":"VideoHandler"},"disposition":{"default":1,"dub":0,"original":0,"comment":0,"lyrics":0,"karaoke":0,"forced":0,"hearing_impaired":0,"visual_impaired":0,"clean_effects":0,"attached_pic":0}}],"format":{"filename":"/Users/jose/www/video/public/videos/1468115416726.mp4","nb_streams":2,"nb_programs":0,"format_name":"mov,mp4,m4a,3gp,3g2,mj2","format_long_name":"QuickTime / MOV","start_time":0,"duration":4.668,"size":714569,"bit_rate":1224625,"probe_score":100,"tags":{"major_brand":"isom","minor_version":"512","compatible_brands":"isomiso2avc1mp41","encoder":"Lavf56.40.101"}},"chapters":[]},"screenshot":"1468115416726.mp4.png","_id":"PW8H8Ejm4jpfGTxC"}
{"nombre":"1468114479712.mp4","metadata":{"streams":[{"index":0,"codec_name":"aac","codec_long_name":"AAC (Advanced Audio Coding)","profile":"LC","codec_type":"audio","codec_time_base":"1/44100","codec_tag_string":"mp4a","codec_tag":"0x6134706d","sample_fmt":"fltp","sample_rate":44100,"channels":2,"channel_layout":"stereo","bits_per_sample":0,"id":"N/A","r_frame_rate":"0/0","avg_frame_rate":"0/0","time_base":"1/44100","start_pts":0,"start_time":0,"duration_ts":205824,"duration":4.667211,"bit_rate":125587,"max_bit_rate":"N/A","bits_per_raw_sample":"N/A","nb_frames":201,"nb_read_frames":"N/A","nb_read_packets":"N/A","tags":{"language":"und","handler_name":"SoundHandler"},"disposition":{"default":1,"dub":0,"original":0,"comment":0,"lyrics":0,"karaoke":0,"forced":0,"hearing_impaired":0,"visual_impaired":0,"clean_effects":0,"attached_pic":0}},{"index":1,"codec_name":"h264","codec_long_name":"H.264 / AVC / MPEG-4 AVC / MPEG-4 part 10","profile":"Main","codec_type":"video","codec_time_base":"1/50","codec_tag_string":"avc1","codec_tag":"0x31637661","width":854,"height":480,"coded_width":864,"coded_height":480,"has_b_frames":1,"sample_aspect_ratio":"1280:1281","display_aspect_ratio":"16:9","pix_fmt":"yuv420p","level":30,"color_range":"N/A","color_space":"unknown","color_transfer":"unknown","color_primaries":"unknown","chroma_location":"left","timecode":"N/A","refs":3,"is_avc":1,"nal_length_size":4,"id":"N/A","r_frame_rate":"25/1","avg_frame_rate":"115000/4561","time_base":"1/90000","start_pts":0,"start_time":0,"duration_ts":410490,"duration":4.561,"bit_rate":1115932,"max_bit_rate":"N/A","bits_per_raw_sample":8,"nb_frames":115,"nb_read_frames":"N/A","nb_read_packets":"N/A","tags":{"language":"und","handler_name":"VideoHandler"},"disposition":{"default":1,"dub":0,"original":0,"comment":0,"lyrics":0,"karaoke":0,"forced":0,"hearing_impaired":0,"visual_impaired":0,"clean_effects":0,"attached_pic":0}}],"format":{"filename":"/Users/jose/www/video/public/videos/1468114479712.mp4","nb_streams":2,"nb_programs":0,"format_name":"mov,mp4,m4a,3gp,3g2,mj2","format_long_name":"QuickTime / MOV","start_time":0,"duration":4.668,"size":714569,"bit_rate":1224625,"probe_score":100,"tags":{"major_brand":"isom","minor_version":"512","compatible_brands":"isomiso2avc1mp41","encoder":"Lavf56.40.101"}},"chapters":[]},"screenshot":"1468114479712.mp4.png","_id":"Q9dNTyrVqGVT6NX0"}
{"nombre":"1468115119538.mp4","metadata":{"streams":[{"index":0,"codec_name":"aac","codec_long_name":"AAC (Advanced Audio Coding)","profile":"LC","codec_type":"audio","codec_time_base":"1/44100","codec_tag_string":"mp4a","codec_tag":"0x6134706d","sample_fmt":"fltp","sample_rate":44100,"channels":2,"channel_layout":"stereo","bits_per_sample":0,"id":"N/A","r_frame_rate":"0/0","avg_frame_rate":"0/0","time_base":"1/44100","start_pts":0,"start_time":0,"duration_ts":205824,"duration":4.667211,"bit_rate":125587,"max_bit_rate":"N/A","bits_per_raw_sample":"N/A","nb_frames":201,"nb_read_frames":"N/A","nb_read_packets":"N/A","tags":{"language":"und","handler_name":"SoundHandler"},"disposition":{"default":1,"dub":0,"original":0,"comment":0,"lyrics":0,"karaoke":0,"forced":0,"hearing_impaired":0,"visual_impaired":0,"clean_effects":0,"attached_pic":0}},{"index":1,"codec_name":"h264","codec_long_name":"H.264 / AVC / MPEG-4 AVC / MPEG-4 part 10","profile":"Main","codec_type":"video","codec_time_base":"1/50","codec_tag_string":"avc1","codec_tag":"0x31637661","width":854,"height":480,"coded_width":864,"coded_height":480,"has_b_frames":1,"sample_aspect_ratio":"1280:1281","display_aspect_ratio":"16:9","pix_fmt":"yuv420p","level":30,"color_range":"N/A","color_space":"unknown","color_transfer":"unknown","color_primaries":"unknown","chroma_location":"left","timecode":"N/A","refs":3,"is_avc":1,"nal_length_size":4,"id":"N/A","r_frame_rate":"25/1","avg_frame_rate":"115000/4561","time_base":"1/90000","start_pts":0,"start_time":0,"duration_ts":410490,"duration":4.561,"bit_rate":1115932,"max_bit_rate":"N/A","bits_per_raw_sample":8,"nb_frames":115,"nb_read_frames":"N/A","nb_read_packets":"N/A","tags":{"language":"und","handler_name":"VideoHandler"},"disposition":{"default":1,"dub":0,"original":0,"comment":0,"lyrics":0,"karaoke":0,"forced":0,"hearing_impaired":0,"visual_impaired":0,"clean_effects":0,"attached_pic":0}}],"format":{"filename":"/Users/jose/www/video/public/videos/1468115119538.mp4","nb_streams":2,"nb_programs":0,"format_name":"mov,mp4,m4a,3gp,3g2,mj2","format_long_name":"QuickTime / MOV","start_time":0,"duration":4.668,"size":714569,"bit_rate":1224625,"probe_score":100,"tags":{"major_brand":"isom","minor_version":"512","compatible_brands":"isomiso2avc1mp41","encoder":"Lavf56.40.101"}},"chapters":[]},"screenshot":"1468115119538.mp4.png","_id":"Qkl1KYolqzaEHpjY"}
{"nombre":"1468114533944.mp4","metadata":{"streams":[{"index":0,"codec_name":"aac","codec_long_name":"AAC (Advanced Audio Coding)","profile":"LC","codec_type":"audio","codec_time_base":"1/44100","codec_tag_string":"mp4a","codec_tag":"0x6134706d","sample_fmt":"fltp","sample_rate":44100,"channels":2,"channel_layout":"stereo","bits_per_sample":0,"id":"N/A","r_frame_rate":"0/0","avg_frame_rate":"0/0","time_base":"1/44100","start_pts":0,"start_time":0,"duration_ts":205824,"duration":4.667211,"bit_rate":125587,"max_bit_rate":"N/A","bits_per_raw_sample":"N/A","nb_frames":201,"nb_read_frames":"N/A","nb_read_packets":"N/A","tags":{"language":"und","handler_name":"SoundHandler"},"disposition":{"default":1,"dub":0,"original":0,"comment":0,"lyrics":0,"karaoke":0,"forced":0,"hearing_impaired":0,"visual_impaired":0,"clean_effects":0,"attached_pic":0}},{"index":1,"codec_name":"h264","codec_long_name":"H.264 / AVC / MPEG-4 AVC / MPEG-4 part 10","profile":"Main","codec_type":"video","codec_time_base":"1/50","codec_tag_string":"avc1","codec_tag":"0x31637661","width":854,"height":480,"coded_width":864,"coded_height":480,"has_b_frames":1,"sample_aspect_ratio":"1280:1281","display_aspect_ratio":"16:9","pix_fmt":"yuv420p","level":30,"color_range":"N/A","color_space":"unknown","color_transfer":"unknown","color_primaries":"unknown","chroma_location":"left","timecode":"N/A","refs":3,"is_avc":1,"nal_length_size":4,"id":"N/A","r_frame_rate":"25/1","avg_frame_rate":"115000/4561","time_base":"1/90000","start_pts":0,"start_time":0,"duration_ts":410490,"duration":4.561,"bit_rate":1115932,"max_bit_rate":"N/A","bits_per_raw_sample":8,"nb_frames":115,"nb_read_frames":"N/A","nb_read_packets":"N/A","tags":{"language":"und","handler_name":"VideoHandler"},"disposition":{"default":1,"dub":0,"original":0,"comment":0,"lyrics":0,"karaoke":0,"forced":0,"hearing_impaired":0,"visual_impaired":0,"clean_effects":0,"attached_pic":0}}],"format":{"filename":"/Users/jose/www/video/public/videos/1468114533944.mp4","nb_streams":2,"nb_programs":0,"format_name":"mov,mp4,m4a,3gp,3g2,mj2","format_long_name":"QuickTime / MOV","start_time":0,"duration":4.668,"size":714569,"bit_rate":1224625,"probe_score":100,"tags":{"major_brand":"isom","minor_version":"512","compatible_brands":"isomiso2avc1mp41","encoder":"Lavf56.40.101"}},"chapters":[]},"screenshot":"1468114533944.mp4.png","_id":"UQb3S9pMk48FccKy"}
{"nombre":"1468115512449.mp4","metadata":{"streams":[{"index":0,"codec_name":"aac","codec_long_name":"AAC (Advanced Audio Coding)","profile":"LC","codec_type":"audio","codec_time_base":"1/44100","codec_tag_string":"mp4a","codec_tag":"0x6134706d","sample_fmt":"fltp","sample_rate":44100,"channels":2,"channel_layout":"stereo","bits_per_sample":0,"id":"N/A","r_frame_rate":"0/0","avg_frame_rate":"0/0","time_base":"1/44100","start_pts":0,"start_time":0,"duration_ts":205824,"duration":4.667211,"bit_rate":125587,"max_bit_rate":"N/A","bits_per_raw_sample":"N/A","nb_frames":201,"nb_read_frames":"N/A","nb_read_packets":"N/A","tags":{"language":"und","handler_name":"SoundHandler"},"disposition":{"default":1,"dub":0,"original":0,"comment":0,"lyrics":0,"karaoke":0,"forced":0,"hearing_impaired":0,"visual_impaired":0,"clean_effects":0,"attached_pic":0}},{"index":1,"codec_name":"h264","codec_long_name":"H.264 / AVC / MPEG-4 AVC / MPEG-4 part 10","profile":"Main","codec_type":"video","codec_time_base":"1/30","codec_tag_string":"avc1","codec_tag":"0x31637661","width":320,"height":180,"coded_width":320,"coded_height":192,"has_b_frames":0,"sample_aspect_ratio":"1:1","display_aspect_ratio":"16:9","pix_fmt":"yuv420p","level":13,"color_range":"N/A","color_space":"unknown","color_transfer":"unknown","color_primaries":"unknown","chroma_location":"left","timecode":"N/A","refs":3,"is_avc":1,"nal_length_size":4,"id":"N/A","r_frame_rate":"15/1","avg_frame_rate":"15/1","time_base":"1/90000","start_pts":0,"start_time":0,"duration_ts":414000,"duration":4.6,"bit_rate":241208,"max_bit_rate":"N/A","bits_per_raw_sample":8,"nb_frames":69,"nb_read_frames":"N/A","nb_read_packets":"N/A","tags":{"language":"und","handler_name":"VideoHandler"},"disposition":{"default":1,"dub":0,"original":0,"comment":0,"lyrics":0,"karaoke":0,"forced":0,"hearing_impaired":0,"visual_impaired":0,"clean_effects":0,"attached_pic":0}}],"format":{"filename":"/Users/jose/www/video/public/videos/1468115512449.mp4","nb_streams":2,"nb_programs":0,"format_name":"mov,mp4,m4a,3gp,3g2,mj2","format_long_name":"QuickTime / MOV","start_time":0,"duration":4.668,"size":215120,"bit_rate":368671,"probe_score":100,"tags":{"major_brand":"isom","minor_version":"512","compatible_brands":"isomiso2avc1mp41","encoder":"Lavf56.40.101"}},"chapters":[]},"screenshot":"1468115512449.mp4.png","_id":"b43qXbDeVlitVio0"}
{"nombre":"1468115057803.mp4","metadata":{"streams":[{"index":0,"codec_name":"aac","codec_long_name":"AAC (Advanced Audio Coding)","profile":"LC","codec_type":"audio","codec_time_base":"1/44100","codec_tag_string":"mp4a","codec_tag":"0x6134706d","sample_fmt":"fltp","sample_rate":44100,"channels":2,"channel_layout":"stereo","bits_per_sample":0,"id":"N/A","r_frame_rate":"0/0","avg_frame_rate":"0/0","time_base":"1/44100","start_pts":0,"start_time":0,"duration_ts":205824,"duration":4.667211,"bit_rate":125587,"max_bit_rate":"N/A","bits_per_raw_sample":"N/A","nb_frames":201,"nb_read_frames":"N/A","nb_read_packets":"N/A","tags":{"language":"und","handler_name":"SoundHandler"},"disposition":{"default":1,"dub":0,"original":0,"comment":0,"lyrics":0,"karaoke":0,"forced":0,"hearing_impaired":0,"visual_impaired":0,"clean_effects":0,"attached_pic":0}},{"index":1,"codec_name":"h264","codec_long_name":"H.264 / AVC / MPEG-4 AVC / MPEG-4 part 10","profile":"Main","codec_type":"video","codec_time_base":"1/50","codec_tag_string":"avc1","codec_tag":"0x31637661","width":854,"height":480,"coded_width":864,"coded_height":480,"has_b_frames":1,"sample_aspect_ratio":"1280:1281","display_aspect_ratio":"16:9","pix_fmt":"yuv420p","level":30,"color_range":"N/A","color_space":"unknown","color_transfer":"unknown","color_primaries":"unknown","chroma_location":"left","timecode":"N/A","refs":3,"is_avc":1,"nal_length_size":4,"id":"N/A","r_frame_rate":"25/1","avg_frame_rate":"115000/4561","time_base":"1/90000","start_pts":0,"start_time":0,"duration_ts":410490,"duration":4.561,"bit_rate":1115932,"max_bit_rate":"N/A","bits_per_raw_sample":8,"nb_frames":115,"nb_read_frames":"N/A","nb_read_packets":"N/A","tags":{"language":"und","handler_name":"VideoHandler"},"disposition":{"default":1,"dub":0,"original":0,"comment":0,"lyrics":0,"karaoke":0,"forced":0,"hearing_impaired":0,"visual_impaired":0,"clean_effects":0,"attached_pic":0}}],"format":{"filename":"/Users/jose/www/video/public/videos/1468115057803.mp4","nb_streams":2,"nb_programs":0,"format_name":"mov,mp4,m4a,3gp,3g2,mj2","format_long_name":"QuickTime / MOV","start_time":0,"duration":4.668,"size":714569,"bit_rate":1224625,"probe_score":100,"tags":{"major_brand":"isom","minor_version":"512","compatible_brands":"isomiso2avc1mp41","encoder":"Lavf56.40.101"}},"chapters":[]},"screenshot":"1468115057803.mp4.png","_id":"pIbRk6qtTZ1sP72h"}
